# xmcd
#
# Track frame offsets: 
#        150
#        14788
#        26263
#        39088
#        51313
#        63388
#        74338
#        85663
#        96313
#        107463
#
# Disc length: 1578 seconds
#
# Revision: 0
# Processed by: cddbd v1.4PL0 Copyright (c) Steve Scherf et al.
# Submitted via: ExactAudioCopy v0.90a11
#
DISCID=7a06280a
DTITLE=Bobby Vinton - The essence of
DYEAR=1900
DGENRE=
TTITLE0=I remember you
TTITLE1=Blue on blue
TTITLE2=Blue velvet
TTITLE3=Mr. Lonely
TTITLE4=Roses are red.My love
TTITLE5=Pettico at white (Summer sky blue)
TTITLE6=Long lonely nights
TTITLE7=Lonely girl
TTITLE8=Satin pillows
TTITLE9=Tears (For souvenirs
EXTD=
EXTT0=
EXTT1=
EXTT2=
EXTT3=
EXTT4=
EXTT5=
EXTT6=
EXTT7=
EXTT8=
EXTT9=
PLAYORDER=
